; NON-PLATED HOLES START AT T1
; THROUGH (PLATED) HOLES START AT T100
M48
INCH
T100C0.035000
T101C0.039370
T102C0.059055
T103C0.033454
T104C0.037396
T105C0.030000
T106C0.038000
T107C0.037368
T108C0.015748
%
T100
X011073Y016125
X022101Y007554
X027101Y010554
X016001Y002354
X005801Y009954
X027101Y007554
X015701Y010554
X024101Y007554
X025101Y010554
X021001Y003354
X015401Y018954
X019301Y017954
X016701Y007554
X014701Y010554
X024101Y010554
X029101Y007554
X008701Y010554
X018201Y009954
X012573Y016125
X012701Y010554
X022101Y010554
X011701Y007554
X029101Y010554
X018201Y008954
X005801Y008954
X013901Y018954
X013701Y007554
X010401Y003354
X016901Y018954
X013401Y002354
X017001Y003354
X026101Y007554
X014073Y016125
X022301Y016954
X009701Y007554
X028101Y007554
X009401Y002354
X021101Y007554
X028101Y010554
X018301Y016954
X014401Y003354
X013701Y010554
X023101Y010554
X023301Y017954
X010701Y007554
X016701Y010554
X023101Y007554
X026101Y010554
X015701Y007554
X020301Y018954
X011701Y010554
X021101Y010554
X020001Y002354
X012701Y007554
X014701Y007554
X008701Y007554
X024301Y018954
X009701Y010554
X010701Y010554
X025101Y007554
T101
X009401Y013654
X025101Y005154
X006401Y013654
X002801Y004354
X009701Y005154
X014701Y005154
X002801Y001554
X007401Y013654
X023101Y005154
X029101Y005154
X015701Y005154
X022101Y005154
X028101Y005154
X001801Y004354
X013701Y005154
X001801Y001554
X008401Y013654
X000801Y004354
X012701Y005154
X018701Y005154
X000801Y001554
X027101Y005154
X026101Y005154
X005401Y013654
X011701Y005154
X017701Y005154
X024101Y005154
X010701Y005154
X016701Y005154
T102
X002601Y013454
X002601Y008454
X002601Y015454
X002601Y017454
X002601Y011454
T103
X002801Y019954
X006401Y000954
X025401Y019954
X009801Y019954
X017401Y000954
X024401Y019954
X014401Y000954
X020401Y000954
X008401Y000954
X019401Y000954
X025401Y000954
X022401Y019954
X022401Y000954
X027401Y000954
X018401Y019954
X008801Y019954
X024401Y000954
X013401Y019954
X003801Y019954
X029401Y000954
X016401Y019954
X006801Y019954
X016401Y000954
X011401Y019954
X001801Y019954
X018401Y000954
X023401Y019954
X011401Y000954
X005401Y000954
X026401Y019954
X026401Y000954
X021401Y019954
X013401Y000954
X007401Y000954
X000801Y019954
X028401Y000954
X004401Y000954
X017401Y019954
X007801Y019954
X009401Y000954
X015401Y019954
X005801Y019954
X023401Y000954
X014401Y019954
X020401Y019954
X010401Y000954
X004801Y019954
X027401Y019954
X015401Y000954
X012401Y019954
T104
X031401Y011954
X031401Y007954
X031401Y018954
X030401Y014954
X031401Y010954
X030401Y007954
X031401Y006954
X031401Y017954
X030401Y013954
X030401Y006954
X031401Y005954
X031401Y016954
X030401Y012954
X030401Y005954
X030401Y019954
X031401Y004954
X031401Y015954
X030401Y011954
X030401Y004954
X030401Y018954
X031401Y014954
X030401Y010954
X030401Y017954
X031401Y002954
X031401Y013954
X031401Y009954
X030401Y002954
X030401Y016954
X031401Y012954
X030401Y009954
X031401Y019954
X030401Y015954
T105
X007501Y009954
X007501Y008954
X019901Y009954
X019901Y008954
T106
X007601Y017854
X004401Y006054
X008308Y017147
X006280Y006740
X005341Y006397
T107
X030401Y008954
X031401Y003954
X031401Y008954
X030401Y003954
T108
X014501Y013054
X012901Y012454
X011401Y011954
X017401Y014054
X016001Y013554
X018901Y014554
X020301Y015054
T00
M30
