G04 MADE WITH FRITZING*
G04 WWW.FRITZING.ORG*
G04 DOUBLE SIDED*
G04 HOLES PLATED*
G04 CONTOUR ON CENTER OF CONTOUR VECTOR*
%ASAXBY*%
%FSLAX23Y23*%
%MOIN*%
%OFA0B0*%
%SFA1.0B1.0*%
%ADD10C,0.085000*%
%ADD11C,0.089370*%
%ADD12C,0.088000*%
%ADD13C,0.080000*%
%ADD14C,0.049370*%
%ADD15C,0.065990*%
%ADD16C,0.075993*%
%ADD17C,0.075965*%
%ADD18C,0.109055*%
%ADD19R,0.085000X0.085000*%
%ADD20R,0.010198X0.010198*%
%LNMASK1*%
G90*
G70*
G54D10*
X2910Y1055D03*
X2910Y755D03*
X2810Y1055D03*
X2810Y755D03*
X2710Y1055D03*
X2710Y755D03*
X2610Y1055D03*
X2610Y755D03*
X2510Y1055D03*
X2510Y755D03*
X2410Y1055D03*
X2410Y755D03*
X2310Y1055D03*
X2310Y755D03*
X2210Y1055D03*
X2210Y755D03*
X2110Y1055D03*
X2110Y755D03*
X1670Y1055D03*
X1670Y755D03*
X1570Y1055D03*
X1570Y755D03*
X1470Y1055D03*
X1470Y755D03*
X1370Y1055D03*
X1370Y755D03*
X1270Y1055D03*
X1270Y755D03*
X1170Y1055D03*
X1170Y755D03*
X1070Y1055D03*
X1070Y755D03*
X970Y1055D03*
X970Y755D03*
X870Y1055D03*
X870Y755D03*
G54D11*
X280Y155D03*
X180Y155D03*
X80Y155D03*
X80Y435D03*
X180Y435D03*
X280Y435D03*
X2910Y515D03*
X2810Y515D03*
X2710Y515D03*
X2610Y515D03*
X2510Y515D03*
X2410Y515D03*
X2310Y515D03*
X2210Y515D03*
X970Y515D03*
X1070Y515D03*
X1170Y515D03*
X1270Y515D03*
X1370Y515D03*
X1470Y515D03*
X1570Y515D03*
X1670Y515D03*
X1770Y515D03*
X1870Y515D03*
X540Y1365D03*
X640Y1365D03*
X740Y1365D03*
X840Y1365D03*
X940Y1365D03*
G54D12*
X440Y605D03*
X534Y640D03*
X628Y674D03*
X760Y1785D03*
X831Y1715D03*
G54D13*
X750Y995D03*
X750Y895D03*
X1990Y995D03*
X1990Y895D03*
G54D10*
X580Y995D03*
X580Y895D03*
X1820Y995D03*
X1820Y895D03*
G54D14*
X1890Y1455D03*
X1740Y1405D03*
X1600Y1355D03*
X1450Y1305D03*
X1290Y1245D03*
X2030Y1505D03*
X1140Y1195D03*
G54D15*
X2340Y95D03*
X740Y95D03*
X2440Y95D03*
X2540Y95D03*
X2640Y95D03*
X2740Y95D03*
G54D16*
X3040Y1495D03*
G54D15*
X2840Y95D03*
X2940Y95D03*
X780Y1995D03*
X1340Y95D03*
X1440Y95D03*
X1540Y95D03*
X1640Y95D03*
G54D16*
X3040Y695D03*
G54D15*
X1740Y95D03*
X1840Y95D03*
X1940Y95D03*
X2040Y95D03*
X1540Y1995D03*
G54D16*
X3040Y1895D03*
X3040Y1095D03*
X3040Y295D03*
G54D15*
X380Y1995D03*
X1140Y95D03*
X1140Y1995D03*
G54D16*
X3040Y1695D03*
X3040Y1295D03*
G54D17*
X3040Y895D03*
G54D15*
X2740Y1995D03*
G54D16*
X3040Y495D03*
G54D15*
X2640Y1995D03*
X2540Y1995D03*
X2440Y1995D03*
X2340Y1995D03*
X2240Y1995D03*
X2140Y1995D03*
X2040Y1995D03*
X180Y1995D03*
X580Y1995D03*
X980Y1995D03*
X540Y95D03*
X940Y95D03*
X1740Y1995D03*
X1340Y1995D03*
G54D16*
X3040Y1995D03*
X3040Y1795D03*
X3040Y1595D03*
X3040Y1395D03*
X3040Y1195D03*
X3040Y995D03*
X3040Y795D03*
X3040Y595D03*
G54D17*
X3040Y395D03*
G54D15*
X80Y1995D03*
X280Y1995D03*
X480Y1995D03*
X680Y1995D03*
X880Y1995D03*
X440Y95D03*
X640Y95D03*
X840Y95D03*
X1040Y95D03*
X1840Y1995D03*
X1640Y1995D03*
X1440Y1995D03*
X1240Y1995D03*
G54D16*
X3140Y1995D03*
X3140Y1895D03*
X3140Y1795D03*
X3140Y1695D03*
X3140Y1595D03*
X3140Y1495D03*
X3140Y1395D03*
X3140Y1295D03*
X3140Y1195D03*
X3140Y1095D03*
X3140Y995D03*
G54D17*
X3140Y895D03*
G54D16*
X3140Y795D03*
X3140Y695D03*
X3140Y595D03*
X3140Y495D03*
G54D17*
X3140Y395D03*
G54D16*
X3140Y295D03*
G54D15*
X2240Y95D03*
G54D18*
X260Y1745D03*
X260Y1545D03*
X260Y1345D03*
X260Y1145D03*
X260Y845D03*
G54D10*
X2230Y1695D03*
X1830Y1695D03*
X2330Y1795D03*
X1930Y1795D03*
X2430Y1895D03*
X2030Y1895D03*
X1690Y1895D03*
X1407Y1613D03*
X1540Y1895D03*
X1257Y1613D03*
X2000Y235D03*
X1600Y235D03*
X2100Y335D03*
X1700Y335D03*
X1340Y235D03*
X940Y235D03*
X1440Y335D03*
X1040Y335D03*
X1390Y1895D03*
X1107Y1613D03*
G54D19*
X2910Y1055D03*
X1670Y1055D03*
X580Y995D03*
X1820Y995D03*
G54D20*
X262Y1696D03*
G04 End of Mask1*
M02*